<svg width="131" height="54" viewBox="0 0 131 54" fill="none" xmlns="http://www.w3.org/2000/svg">
<g clip-path="url(#clip0_91_860)">
<path d="M130.627 38.3012H126.435V53.128H130.627V38.3012Z" fill="#EE2B7C"/>
<path d="M128.532 36.5015C129.897 36.5015 131.003 35.3935 131.003 34.0266C131.003 32.6597 129.897 31.5516 128.532 31.5516C127.168 31.5516 126.062 32.6597 126.062 34.0266C126.062 35.3935 127.168 36.5015 128.532 36.5015Z" fill="#EE2B7C"/>
<path d="M31.0343 0L25.8505 1.20306C22.8658 1.89474 20.4016 3.99272 19.2365 6.83482L0 53.7214H3.13845C7.93285 53.7214 12.2527 50.8235 14.0788 46.3817L14.7628 44.7165H25.6443C29.4831 44.7165 32.5986 41.599 32.5986 37.7505V36.2754H18.2318L26.541 15.5972L42.014 53.7214H53.0787L31.0343 0Z" fill="#00082E"/>
<path d="M65.0205 45.2573C64.4707 45.2573 64.1205 45.0639 63.8293 44.8869C62.026 43.7494 61.8395 41.5203 61.8395 39.3436V0.0163898L58.1676 0.662174C54.8655 1.2424 52.4536 4.114 52.4536 7.47405V41.4023C52.4536 50.1089 58.6749 53.705 64.186 53.705L71.2909 53.7214L69.72 50.0597C68.4928 47.4143 68.028 45.254 65.0172 45.254L65.0205 45.2573Z" fill="#00082E"/>
<path d="M95.433 44.2772C93.3614 45.2508 91.375 45.5589 88.6685 45.5589C83.3439 45.5589 79.816 42.8152 78.4088 38.9142H106.229C106.436 37.9242 106.619 36.4524 106.619 34.8068C106.619 24.2054 98.0413 15.6135 87.4576 15.6135C76.8739 15.6135 68.2964 24.2054 68.2964 34.8068C68.2964 45.4081 75.4798 54 88.6685 54C91.7382 54 93.908 53.8328 95.7177 53.4099C94.7523 52.0659 94.1796 50.4138 94.1796 48.6305C94.1796 47.0308 94.6378 45.5392 95.4297 44.2772H95.433ZM87.4609 24.0546C91.748 24.0546 95.3839 27.1098 96.6897 31.3517H78.2321C79.5379 27.1098 83.1737 24.0546 87.4609 24.0546Z" fill="#00082E"/>
<path d="M103.455 53.2733C106.013 52.6686 107.597 50.1015 106.994 47.5395C106.39 44.9776 103.827 43.3908 101.269 43.9955C98.7116 44.6002 97.1276 47.1673 97.7312 49.7293C98.3349 52.2913 100.898 53.878 103.455 53.2733Z" fill="#EE2B7C"/>
<path d="M120.023 39.6387C120.023 39.6387 118.855 38.0619 116.106 38.0619C112.457 38.0619 109.8 40.6385 109.165 44.0707C109.07 44.5886 109.018 45.1229 109.018 45.6704C109.018 47.4012 109.508 48.9976 110.379 50.2761C111.623 52.102 113.635 53.2821 116.106 53.2821C119.074 53.2821 120.023 51.7053 120.023 51.7053V53.0854H124.216V45.6736V38.2586H120.023V39.6387ZM120.023 45.9031C119.922 47.988 118.439 49.6434 116.623 49.6434C114.807 49.6434 113.213 47.8667 113.213 45.6736C113.213 43.4806 114.738 41.7039 116.623 41.7039C118.508 41.7039 119.922 43.3593 120.023 45.4442V45.9031Z" fill="#EE2B7C"/>
</g>
<defs>
<clipPath id="clip0_91_860">
<rect width="131" height="54" fill="white"/>
</clipPath>
</defs>
</svg>
